<?xml version="1.0" encoding="utf-8"?>
<!-- Generator: Adobe Illustrator 28.0.0, SVG Export Plug-In . SVG Version: 6.00 Build 0)  -->
<svg version="1.1" id="Ebene_1" xmlns="http://www.w3.org/2000/svg" xmlns:xlink="http://www.w3.org/1999/xlink" x="0px" y="0px"
	 viewBox="0 0 194 58" style="enable-background:new 0 0 194 58;" xml:space="preserve">
<style type="text/css">
	.st0{fill-rule:evenodd;clip-rule:evenodd;fill:#0F2E79;}
</style>
<path class="st0" d="M30.8,55c15.4,0,27.9-11.7,27.9-26.1c0-14.4-12.5-26.1-27.9-26.1S2.9,14.5,2.9,28.9C2.9,43.3,15.4,55,30.8,55z
	 M30.8,57.2C47.5,57.2,61,44.5,61,28.9C61,13.3,47.5,0.6,30.8,0.6C14.1,0.6,0.6,13.3,0.6,28.9C0.6,44.5,14.1,57.2,30.8,57.2z"/>
<path class="st0" d="M48.8,26.8c1.9,0,3.4-1.4,3.4-3.2c0-1.8-1.5-3.2-3.4-3.2c-1.9,0-3.4,1.4-3.4,3.2C45.4,25.4,46.9,26.8,48.8,26.8
	z M48.8,28.6c2.9,0,5.3-2.2,5.3-5c0-2.7-2.4-5-5.3-5c-2.9,0-5.3,2.2-5.3,5C43.5,26.4,45.9,28.6,48.8,28.6z"/>
<path class="st0" d="M58.6,36.8c-4.3-2.7-7.5-7.2-8.5-9.1l1-0.5c1,1.8,4,6.1,8.1,8.7L58.6,36.8z"/>
<path class="st0" d="M13.8,37.7c1.9,0,3.4-1.4,3.4-3.2c0-1.8-1.5-3.2-3.4-3.2s-3.4,1.4-3.4,3.2C10.4,36.3,11.9,37.7,13.8,37.7z
	 M13.8,39.5c2.9,0,5.3-2.2,5.3-5c0-2.7-2.4-5-5.3-5s-5.3,2.2-5.3,5C8.5,37.2,10.9,39.5,13.8,39.5z"/>
<path class="st0" d="M43.9,23.5c-14.2-2.7-24.2,4.1-27.7,8l-0.9-0.7c3.7-4.1,14.1-11.1,28.8-8.3L43.9,23.5z"/>
<path class="st0" d="M41.8,53.3c-5.3-12.6-17.9-17.1-23.3-17.7l0.1-1.1c5.7,0.7,18.7,5.4,24.3,18.4L41.8,53.3z"/>
<path class="st0" d="M28.6,2.2C31.6,13.4,40,20,45.2,21.5l-0.4,1C39.3,20.9,30.5,14,27.5,2.5L28.6,2.2z"/>
<path class="st0" d="M8,26.8c1.7,1.4,3,3,3.8,4l-1,0.6c-0.7-0.9-2-2.4-3.6-3.8c-1.6-1.4-3.5-2.6-5.3-3.1l0.3-1
	C4.3,24,6.3,25.4,8,26.8z"/>
<path class="st0" d="M5.4,35.1c1.4-0.3,3-0.5,4-0.6l0.1,1.1c-1,0.1-2.5,0.3-3.9,0.6c-0.7,0.2-1.3,0.3-1.7,0.5
	c-0.5,0.2-0.7,0.4-0.8,0.5l-1-0.5c0.3-0.5,0.8-0.8,1.3-1C4,35.4,4.6,35.2,5.4,35.1z"/>
<path class="st0" d="M15.9,39.8c-0.3-0.7-0.6-1.1-0.7-1.3l0.9-0.7c0.3,0.3,0.6,0.9,1,1.6c0.3,0.8,0.6,1.7,0.9,3
	c0.5,2.5,0.9,6.1,0.7,11.1l-1.2,0c0.2-4.9-0.1-8.4-0.7-10.8C16.5,41.4,16.2,40.5,15.9,39.8z"/>
<path class="st0" d="M46.2,13.6c0-2.5,0.2-5.1,0.4-6.7L47.8,7c-0.2,1.6-0.4,4.1-0.4,6.6c0,2.5,0.1,4.9,0.6,6.3L47,20.3
	C46.4,18.7,46.2,16.1,46.2,13.6z"/>
<path class="st0" d="M60.2,25.9l-7.4-0.3l0-1.1l7.4,0.3L60.2,25.9z"/>
<g>
	<path d="M79.3,17.7l-1,1.2c-0.6-0.5-1.2-0.8-1.9-0.8c-0.7,0-1.2,0.4-1.2,1c0,0.6,0.3,0.9,1.7,1.4c1.7,0.6,2.7,1.4,2.7,3.2
		c0,1.8-1.4,3.1-3.6,3.1c-1.6,0-2.7-0.6-3.5-1.4l1.1-1.2c0.7,0.6,1.4,0.9,2.2,0.9c0.9,0,1.4-0.5,1.4-1.3c0-0.7-0.3-1.1-1.6-1.5
		c-2-0.7-2.8-1.6-2.8-3.1c0-1.7,1.4-2.9,3.3-2.9C77.6,16.4,78.5,16.9,79.3,17.7z"/>
	<path d="M85,26.2c-0.5,0.4-1.3,0.6-1.9,0.6c-1.6,0-2.3-1-2.3-2.5v-3.8h-0.9V19h0.9v-1.6l2.2-0.3V19h1.6l-0.2,1.5H83v3.8
		c0,0.5,0.2,0.8,0.6,0.8c0.2,0,0.5-0.1,0.7-0.2L85,26.2z"/>
	<path d="M91.6,25.4l-0.5,1.4c-0.8-0.1-1.4-0.3-1.7-1.1c-0.5,0.8-1.3,1.1-2.1,1.1c-1.4,0-2.2-1-2.2-2.4c0-1.6,1.1-2.6,3.3-2.6H89
		v-0.4c0-0.9-0.3-1.2-1.1-1.2c-0.5,0-1.1,0.1-1.8,0.4l-0.5-1.4c0.9-0.4,1.8-0.6,2.7-0.6c2,0,2.9,0.9,2.9,2.7v3.1
		C91.1,25,91.3,25.2,91.6,25.4z M89,24.5v-1.4h-0.4c-0.9,0-1.3,0.4-1.3,1.1c0,0.6,0.3,1,0.7,1C88.4,25.3,88.8,25,89,24.5z"/>
	<path d="M97.1,26.2c-0.5,0.4-1.3,0.6-1.9,0.6c-1.6,0-2.3-1-2.3-2.5v-3.8h-0.9V19h0.9v-1.6l2.2-0.3V19h1.6l-0.2,1.5H95v3.8
		c0,0.5,0.2,0.8,0.6,0.8c0.2,0,0.5-0.1,0.7-0.2L97.1,26.2z"/>
	<path d="M100.1,16.3c0,0.7-0.5,1.3-1.3,1.3c-0.8,0-1.3-0.5-1.3-1.3c0-0.7,0.5-1.2,1.3-1.2C99.6,15,100.1,15.6,100.1,16.3z
		 M99.9,26.6h-2.2V19h2.2V26.6z"/>
	<path d="M106.4,19.7l-0.8,1.2c-0.5-0.3-1.1-0.6-1.6-0.6c-0.5,0-0.8,0.2-0.8,0.6c0,0.4,0.2,0.6,1.4,1c1.3,0.5,2.1,1.1,2.1,2.4
		c0,1.6-1.3,2.5-3.1,2.5c-1.2,0-2.2-0.4-2.9-1.1l1-1.2c0.5,0.4,1.1,0.7,1.8,0.7c0.6,0,0.9-0.3,0.9-0.7c0-0.5-0.2-0.7-1.4-1.1
		c-1.4-0.5-2-1.2-2-2.3c0-1.3,1.1-2.3,2.9-2.3C104.9,18.7,105.8,19.1,106.4,19.7z"/>
	<path d="M112.1,26.2c-0.5,0.4-1.3,0.6-1.9,0.6c-1.6,0-2.3-1-2.3-2.5v-3.8h-0.9V19h0.9v-1.6l2.2-0.3V19h1.6l-0.2,1.5H110v3.8
		c0,0.5,0.2,0.8,0.6,0.8c0.2,0,0.5-0.1,0.7-0.2L112.1,26.2z"/>
	<path d="M115.1,16.3c0,0.7-0.5,1.3-1.3,1.3c-0.8,0-1.3-0.5-1.3-1.3c0-0.7,0.5-1.2,1.3-1.2C114.5,15,115.1,15.6,115.1,16.3z
		 M114.9,26.6h-2.2V19h2.2V26.6z"/>
	<path d="M121.9,19.7l-0.9,1.3c-0.4-0.3-0.8-0.5-1.3-0.5c-0.8,0-1.3,0.6-1.3,2.4c0,1.8,0.5,2.3,1.3,2.3c0.5,0,0.8-0.2,1.2-0.5l1,1.3
		c-0.6,0.6-1.4,0.9-2.3,0.9c-2.2,0-3.5-1.4-3.5-4c0-2.5,1.3-4.1,3.5-4.1C120.5,18.7,121.2,19.1,121.9,19.7z"/>
	<path d="M128.6,25.4l-0.5,1.4c-0.8-0.1-1.4-0.3-1.7-1.1c-0.5,0.8-1.3,1.1-2.1,1.1c-1.4,0-2.2-1-2.2-2.4c0-1.6,1.1-2.6,3.3-2.6h0.6
		v-0.4c0-0.9-0.3-1.2-1.1-1.2c-0.5,0-1.1,0.1-1.8,0.4l-0.5-1.4c0.9-0.4,1.8-0.6,2.7-0.6c2,0,2.9,0.9,2.9,2.7v3.1
		C128.1,25,128.3,25.2,128.6,25.4z M126,24.5v-1.4h-0.4c-0.9,0-1.3,0.4-1.3,1.1c0,0.6,0.3,1,0.7,1C125.4,25.3,125.7,25,126,24.5z"/>
	<path d="M129.5,24.8V16l2.2-0.2v8.9c0,0.3,0.1,0.4,0.3,0.4c0.1,0,0.2,0,0.3-0.1l0.4,1.5c-0.3,0.1-0.8,0.3-1.3,0.3
		C130.2,26.8,129.5,26.1,129.5,24.8z"/>
	<path d="M142.7,17.7l-1,1.2c-0.6-0.5-1.2-0.8-1.9-0.8c-0.7,0-1.2,0.4-1.2,1c0,0.6,0.3,0.9,1.7,1.4c1.7,0.6,2.6,1.4,2.6,3.2
		c0,1.8-1.4,3.1-3.6,3.1c-1.6,0-2.7-0.6-3.5-1.4l1.1-1.2c0.7,0.6,1.4,0.9,2.2,0.9c0.9,0,1.4-0.5,1.4-1.3c0-0.7-0.3-1.1-1.6-1.5
		c-2-0.7-2.8-1.6-2.8-3.1c0-1.7,1.4-2.9,3.3-2.9C140.9,16.4,141.9,16.9,142.7,17.7z"/>
	<path d="M149.4,19.7l-0.9,1.3c-0.4-0.3-0.8-0.5-1.3-0.5c-0.8,0-1.3,0.6-1.3,2.4c0,1.8,0.5,2.3,1.3,2.3c0.5,0,0.8-0.2,1.2-0.5l1,1.3
		c-0.6,0.6-1.4,0.9-2.3,0.9c-2.2,0-3.5-1.4-3.5-4c0-2.5,1.3-4.1,3.5-4.1C148,18.7,148.8,19.1,149.4,19.7z"/>
	<path d="M154.8,18.9l-0.4,2.1c-0.2-0.1-0.4-0.1-0.6-0.1c-0.8,0-1.2,0.7-1.4,1.7v4h-2.2V19h1.9l0.2,1.3c0.3-1,1-1.6,1.8-1.6
		C154.3,18.8,154.5,18.8,154.8,18.9z"/>
	<path d="M161.1,25.4l-0.5,1.4c-0.8-0.1-1.4-0.3-1.7-1.1c-0.5,0.8-1.3,1.1-2.1,1.1c-1.4,0-2.2-1-2.2-2.4c0-1.6,1.1-2.6,3.3-2.6h0.6
		v-0.4c0-0.9-0.3-1.2-1.1-1.2c-0.5,0-1.1,0.1-1.8,0.4l-0.5-1.4c0.9-0.4,1.8-0.6,2.7-0.6c2,0,2.9,0.9,2.9,2.7v3.1
		C160.7,25,160.8,25.2,161.1,25.4z M158.5,24.5v-1.4h-0.4c-0.9,0-1.3,0.4-1.3,1.1c0,0.6,0.3,1,0.7,1C158,25.3,158.3,25,158.5,24.5z"
		/>
	<path d="M168.8,22.8c0,2.4-1,4.1-2.7,4.1c-0.7,0-1.2-0.3-1.6-0.8v3.5l-2.2,0.2V19h1.9l0.1,0.8c0.6-0.8,1.2-1.1,2-1.1
		C167.9,18.7,168.8,20.2,168.8,22.8z M166.5,22.8c0-2-0.4-2.4-1-2.4c-0.4,0-0.8,0.3-1.1,0.8v3.4c0.3,0.4,0.6,0.6,1,0.6
		C166,25.2,166.5,24.6,166.5,22.8z"/>
	<path d="M172.3,16.3c0,0.7-0.5,1.3-1.3,1.3s-1.3-0.5-1.3-1.3c0-0.7,0.5-1.2,1.3-1.2S172.3,15.6,172.3,16.3z M172.1,26.6h-2.2V19
		h2.2V26.6z"/>
	<path d="M179.7,21v5.6h-2.2v-5.3c0-0.7-0.2-0.9-0.6-0.9c-0.4,0-0.7,0.3-1.1,0.9v5.2h-2.2V19h1.9l0.2,0.9c0.6-0.7,1.2-1.1,2.1-1.1
		C178.9,18.7,179.7,19.6,179.7,21z"/>
	<path d="M187.5,19.4c-0.4,0.2-1.1,0.3-2,0.3c0.9,0.4,1.3,1,1.3,2c0,1.5-1.1,2.5-3,2.5c-0.3,0-0.5,0-0.8-0.1
		c-0.1,0.1-0.2,0.3-0.2,0.5c0,0.3,0.1,0.5,0.8,0.5h0.9c1.7,0,2.8,0.9,2.8,2.2c0,1.5-1.3,2.5-3.7,2.5c-2.7,0-3.4-1-3.4-2.4h2
		c0,0.7,0.2,1,1.4,1c1.1,0,1.4-0.4,1.4-0.9c0-0.5-0.3-0.8-1-0.8h-0.8c-1.6,0-2.2-0.6-2.2-1.5c0-0.6,0.4-1.1,0.8-1.4
		c-0.9-0.5-1.2-1.2-1.2-2.2c0-1.7,1.2-2.8,3.1-2.8c1.5,0,2.3-0.4,3.2-0.9L187.5,19.4z M182.9,21.5c0,0.9,0.4,1.3,1,1.3
		c0.6,0,1-0.4,1-1.3c0-0.9-0.3-1.3-1-1.3C183.2,20.2,182.9,20.6,182.9,21.5z"/>
</g>
<g>
	<path d="M74,33.4h0.9v9.5H74V33.4z"/>
	<path d="M80.7,36.3c-1,0-2,0.6-2.6,2.4v4.2h-0.9v-7.2h0.8v1.7c0.6-1.3,1.5-1.9,2.7-1.9c1.4,0,2.3,0.8,2.3,2.4v5h-0.9v-5
		C82.2,36.8,81.7,36.3,80.7,36.3z"/>
	<path d="M85.8,41.1v-4.7h-1.2v-0.7h1.2v-2.2l0.9-0.2v2.4h1.8v0.7h-1.8v4.7c0,0.8,0.2,1.1,0.8,1.1c0.3,0,0.6-0.1,1-0.2l0.2,0.7
		c-0.4,0.2-0.8,0.2-1.2,0.2C86.3,43,85.8,42.5,85.8,41.1z"/>
	<path d="M89.7,39.3c0-2.3,1.2-3.8,3.2-3.8c1.7,0,2.7,1.2,2.7,3.3c0,0.2,0,0.4,0,0.6h-5c0,1.7,0.8,3,2.4,3c1,0,1.6-0.4,2-1.2
		l0.6,0.4c-0.6,1-1.5,1.5-2.7,1.5C90.9,43.1,89.7,41.5,89.7,39.3z M94.8,38.7c0-1.5-0.6-2.5-1.9-2.5c-1.4,0-2.1,1-2.2,2.5H94.8z"/>
	<path d="M97.5,35.7h0.8v1.6c0.5-1.2,1.3-1.8,2.8-1.7l-0.1,0.9c-1.4-0.1-2.2,0.6-2.7,2.1v4.3h-0.9V35.7z"/>
	<path d="M101.9,39.3c0-2.3,1.2-3.8,3.2-3.8c1.7,0,2.7,1.2,2.7,3.3c0,0.2,0,0.4,0,0.6h-5c0,1.7,0.8,3,2.4,3c1,0,1.6-0.4,2-1.2
		l0.6,0.4c-0.6,1-1.5,1.5-2.7,1.5C103.1,43.1,101.9,41.5,101.9,39.3z M107,38.7c0-1.5-0.6-2.5-1.9-2.5c-1.4,0-2.1,1-2.2,2.5H107z"/>
	<path d="M109.2,41.2L110,41c0.2,0.9,0.8,1.3,2,1.3c1.1,0,1.8-0.5,1.8-1.3c0-0.6-0.3-1-1.5-1.3l-0.7-0.2c-1.5-0.3-2.1-0.9-2.1-2.1
		c0-1.2,1-2,2.6-2c1.5,0,2.3,0.6,2.6,1.8l-0.8,0.2c-0.2-0.9-0.8-1.3-1.8-1.3c-1.1,0-1.7,0.5-1.7,1.3c0,0.6,0.3,1,1.4,1.3l0.7,0.2
		c1.7,0.4,2.2,1,2.2,2.1c0,1.2-1,2-2.6,2C110.6,43.1,109.5,42.5,109.2,41.2z"/>
	<path d="M117.1,41.1v-4.7H116v-0.7h1.2v-2.2l0.9-0.2v2.4h1.8v0.7H118v4.7c0,0.8,0.2,1.1,0.8,1.1c0.3,0,0.6-0.1,1-0.2l0.2,0.7
		c-0.4,0.2-0.8,0.2-1.2,0.2C117.7,43,117.1,42.5,117.1,41.1z"/>
	<path d="M124.7,38.1c0-3,1.4-4.9,4.2-4.9c1.6,0,2.8,0.7,3.4,2.2l-0.8,0.4c-0.5-1.3-1.3-1.9-2.6-1.9c-2.2,0-3.2,1.5-3.2,4.2
		c0,2.6,1,4.2,3.1,4.2c1.2,0,2.2-0.5,2.7-1.6V39H129v-0.8h3.4v4.6h-0.6l-0.2-1.3c-0.6,0.9-1.5,1.5-2.8,1.5
		C126.1,43.1,124.7,41.2,124.7,38.1z"/>
	<path d="M134.8,35.7h0.8v1.6c0.5-1.2,1.3-1.8,2.8-1.7l-0.1,0.9c-1.4-0.1-2.2,0.6-2.7,2.1v4.3h-0.9V35.7z"/>
	<path d="M139.2,39.3c0-2.3,1.2-3.8,3.3-3.8c2,0,3.3,1.4,3.3,3.8s-1.2,3.8-3.3,3.8C140.4,43.1,139.2,41.6,139.2,39.3z M142.4,42.3
		c1.5,0,2.3-1,2.3-3c0-2-0.8-3-2.3-3s-2.3,1.1-2.3,3C140.1,41.3,141,42.3,142.4,42.3z"/>
	<path d="M147.5,40.7v-5h0.9v5c0,1.1,0.5,1.6,1.5,1.6c1,0,2-0.6,2.6-2.1v-4.6h0.9v7.2h-0.8v-1.5c-0.6,1.1-1.5,1.7-2.7,1.7
		C148.3,43.1,147.5,42.3,147.5,40.7z"/>
	<path d="M156.4,41.7v3.9h-0.9v-9.9h0.8V37c0.5-1,1.3-1.5,2.4-1.5c2,0,2.9,1.4,2.9,3.8c0,2.2-1.1,3.8-3.1,3.8
		C157.6,43.1,156.8,42.6,156.4,41.7z M158.5,42.3c1.4,0,2.2-1.2,2.2-3.1c0-1.9-0.7-3-2.1-3c-1.1,0-1.9,0.7-2.2,2v2.2
		C156.8,41.6,157.5,42.3,158.5,42.3z"/>
</g>
</svg>
